<svg width="486" height="149" viewBox="0 0 486 149" fill="none" xmlns="http://www.w3.org/2000/svg">
<g clip-path="url(#clip0_12_3)">
<path fill-rule="evenodd" clip-rule="evenodd" d="M486 117.958V138.871H414.703V117.958H486Z" fill="#DE14AF"/>
<path d="M39.4098 131.029H12.5915L0.0653992 27.1533H21.3238L28.1919 82.9629L34.2097 27.1533H57.9864L65.1488 82.9629L70.8723 27.1533H92.2288L79.5392 131.029H53.4077L45.9509 72.1147L39.4098 131.029ZM129.578 132.139C122.187 132.139 116.289 130.745 111.885 127.957C107.502 125.191 104.362 121.204 102.466 115.998C100.569 110.77 99.6202 104.485 99.6202 97.1441V55.4176C99.6202 45.7674 102.4 38.4699 107.96 33.525C113.498 28.5366 121.118 26.0423 130.821 26.0423C150.771 26.0423 160.746 35.8341 160.746 55.4176V62.9329C160.746 72.082 160.659 78.225 160.485 81.3618H124.443V101.457C124.443 103.309 124.563 105.128 124.803 106.914C125.021 108.679 125.523 110.138 126.308 111.293C127.136 112.447 128.455 113.024 130.265 113.024C132.86 113.024 134.473 111.913 135.105 109.691C135.759 107.426 136.087 104.496 136.087 100.902V90.9358H160.746V96.8173C160.746 104.572 159.776 111.075 157.836 116.325C155.96 121.553 152.733 125.506 148.155 128.186C143.62 130.822 137.427 132.139 129.578 132.139ZM124.313 55.0581V69.0432H136.087V55.0581C136.087 51.3113 135.629 48.632 134.713 47.02C133.775 45.3644 132.38 44.5366 130.527 44.5366C128.543 44.5366 127.005 45.3208 125.915 46.8893C124.847 48.4577 124.313 51.1806 124.313 55.0581ZM197.245 20.7816H172.422V0.130707H197.245V20.7816ZM177.688 149.033C172.433 149.033 168.923 148.434 167.157 147.236V130.604C167.985 130.843 168.748 130.963 169.446 130.963C170.798 130.963 171.626 130.506 171.931 129.591C172.259 128.654 172.422 127.478 172.422 126.062V27.1533H197.245V125.343C197.245 132.728 195.763 138.522 192.797 142.726C189.898 146.931 184.861 149.033 177.688 149.033ZM237.309 132.139C216.596 132.139 206.239 121.411 206.239 99.9542V58.2603C206.239 48.4795 208.997 40.6809 214.514 34.8647C220.008 28.9831 227.607 26.0423 237.309 26.0423C247.055 26.0423 254.676 28.9831 260.17 34.8647C265.665 40.6809 268.412 48.4795 268.412 58.2603V99.9542C268.412 121.411 258.044 132.139 237.309 132.139ZM237.309 113.024C239.381 113.024 240.852 112.284 241.724 110.802C242.662 109.278 243.131 107.361 243.131 105.052V54.3066C243.131 48.2507 241.19 45.2228 237.309 45.2228C233.428 45.2228 231.488 48.2507 231.488 54.3066V105.052C231.488 107.361 231.924 109.278 232.796 110.802C233.712 112.284 235.216 113.024 237.309 113.024ZM319.236 132.139C315.18 132.139 311.877 131.148 309.326 129.166C306.797 127.14 304.769 124.069 303.243 119.952V131.029H277.995V9.14913H303.243V38.2303C304.769 34.4181 306.862 31.4447 309.522 29.3099C312.248 27.1315 316.129 26.0423 321.166 26.0423C327.968 26.0423 332.754 28.5148 335.523 33.4597C338.336 38.4045 339.742 44.8743 339.742 52.8689V103.973C339.742 109.267 339.012 114.059 337.551 118.35C336.112 122.598 333.866 125.975 330.814 128.48C327.805 130.92 323.945 132.139 319.236 132.139ZM308.999 112.828C311.616 112.828 313.207 111.532 313.774 108.94C314.319 106.348 314.592 103.167 314.592 99.3987V58.8158C314.592 54.9819 314.319 51.7906 313.774 49.2419C313.207 46.6714 311.637 45.3862 309.065 45.3862C306.383 45.3862 304.737 46.7041 304.126 49.3399C303.537 51.9104 303.243 55.069 303.243 58.8158V99.3987C303.243 103.124 303.537 106.304 304.126 108.94C304.737 111.532 306.361 112.828 308.999 112.828ZM377.19 132.139C356.673 132.139 346.414 121.749 346.414 100.967V92.7329H371.368V104.921C371.368 107.273 371.826 109.125 372.742 110.476C373.679 111.804 375.162 112.469 377.19 112.469C380.787 112.469 382.586 109.768 382.586 104.365C382.586 99.8561 381.638 96.4906 379.741 94.2686C377.844 92.0032 375.533 89.8357 372.807 87.7662L359.561 77.5715C355.419 74.3475 352.257 70.9275 350.077 67.3114C347.918 63.7171 346.839 58.7178 346.839 52.3134C346.839 46.3447 348.245 41.4216 351.058 37.5441C353.914 33.6666 357.676 30.7803 362.341 28.8851C367.051 26.9899 372.131 26.0423 377.582 26.0423C397.729 26.0423 407.802 36.0846 407.802 56.1691V58.1296H382.161V54.1759C382.161 52.1064 381.79 50.0915 381.049 48.1309C380.373 46.1922 378.988 45.2228 376.895 45.2228C373.385 45.2228 371.63 47.0744 371.63 50.7776C371.63 54.5244 373.112 57.4543 376.078 59.5673L391.449 70.775C396.268 74.2386 400.29 78.3557 403.517 83.1263C406.788 87.8752 408.423 94.1924 408.423 102.078C408.423 111.881 405.632 119.342 400.051 124.461C394.512 129.58 386.892 132.139 377.19 132.139Z" fill="white"/>
</g>
<defs>
<clipPath id="clip0_12_3">
<rect width="486" height="149" fill="white"/>
</clipPath>
</defs>
</svg>
